<svg version="1.1" id="Layer_1" xmlns="http://www.w3.org/2000/svg" xmlns:xlink="http://www.w3.org/1999/xlink" x="0px" y="0px"
	 width="100%" viewBox="0 0 1166 1185" enable-background="new 0 0 1166 1185" xml:space="preserve">
<path fill="#208D80" opacity="1.000000" stroke="none" 
	d="
M540.000000,1186.000000 
	C360.000000,1186.000000 180.500000,1186.000000 1.000000,1186.000000 
	C1.000000,791.000000 1.000000,396.000000 1.000000,1.000000 
	C389.666656,1.000000 778.333313,1.000000 1167.000000,1.000000 
	C1167.000000,396.000000 1167.000000,791.000000 1167.000000,1186.000000 
	C958.166687,1186.000000 749.333313,1186.000000 540.000000,1186.000000 
M361.704498,558.387634 
	C356.086823,559.570129 350.487885,561.655457 344.848083,561.772461 
	C324.857697,562.187073 304.844666,561.602905 284.859772,562.133423 
	C279.140564,562.285278 272.873322,563.840576 267.923737,566.638794 
	C255.072845,573.903687 250.004166,588.735962 254.238586,603.283508 
	C257.905304,615.880615 270.410187,624.855591 284.514618,624.910461 
	C296.180206,624.955872 307.848114,625.026550 319.511536,624.854004 
	C332.967712,624.654968 346.548370,625.263672 359.850006,623.658081 
	C399.022125,618.929871 431.216217,589.994263 441.909607,551.921509 
	C455.102295,504.950256 468.735107,458.102570 482.201965,411.208435 
	C484.767090,402.276062 487.444916,393.376068 490.457062,383.149506 
	C491.359680,385.753418 491.844513,386.956390 492.196838,388.196960 
	C503.083771,426.532135 514.005310,464.857605 524.821533,503.212769 
	C537.345886,547.624939 549.757874,592.068787 562.251587,636.489624 
	C577.027405,689.024475 591.840332,741.548950 606.633423,794.078918 
	C616.138611,827.831848 625.499756,861.626343 635.235901,895.312561 
	C637.653442,903.677185 639.942444,912.573914 644.634644,919.677734 
	C653.042969,932.407593 665.968262,937.958679 681.325562,935.431824 
	C697.944397,932.697327 708.128052,922.037659 712.708313,906.404846 
	C725.130432,864.007568 737.091125,821.475281 749.262329,779.004395 
	C761.383057,736.709778 773.406311,694.386597 785.740295,652.154114 
	C790.776184,634.910950 804.833069,624.911804 822.898743,624.887451 
	C842.897705,624.860535 862.897339,624.816284 882.895691,624.940979 
	C903.172791,625.067383 915.444153,607.686096 915.361633,594.092407 
	C915.253357,576.248840 901.286255,561.450867 882.960083,561.817322 
	C861.802734,562.240417 840.630371,561.876587 819.465271,561.987854 
	C815.515686,562.008545 811.531433,562.423828 807.627441,563.054504 
	C765.496033,569.861755 738.476013,594.334839 726.401855,634.739746 
	C710.766907,687.060303 696.097900,739.669556 681.014343,792.154907 
	C679.602783,797.066467 678.200500,801.980652 676.793945,806.893616 
	C676.351624,806.861816 675.909241,806.830078 675.466919,806.798279 
	C672.940918,798.458984 670.277832,790.158264 667.912720,781.773560 
	C658.040649,746.775391 648.316711,711.735413 638.425476,676.742676 
	C629.026123,643.489746 619.401062,610.300537 610.028381,577.040161 
	C596.434082,528.798767 582.972717,480.519928 569.463501,432.254578 
	C555.515259,382.420746 541.488953,332.608459 527.708496,282.728271 
	C524.869324,272.451477 520.328491,263.505524 511.359070,257.473358 
	C490.205994,243.247299 462.877441,253.442215 455.133667,278.371796 
	C453.415009,283.904480 452.095245,289.559875 450.517914,295.137848 
	C438.553101,337.449951 426.595825,379.764160 414.579437,422.061615 
	C409.750824,439.058350 404.785553,456.016296 399.872192,472.988922 
	C393.661530,494.442932 387.578522,515.935364 381.161499,537.327576 
	C378.242065,547.059875 371.689453,553.894470 361.704498,558.387634 
z"/>
<path fill="#FCFDFD" opacity="1.000000" stroke="none" 
	d="
M362.046570,558.215088 
	C371.689453,553.894470 378.242065,547.059875 381.161499,537.327576 
	C387.578522,515.935364 393.661530,494.442932 399.872192,472.988922 
	C404.785553,456.016296 409.750824,439.058350 414.579437,422.061615 
	C426.595825,379.764160 438.553101,337.449951 450.517914,295.137848 
	C452.095245,289.559875 453.415009,283.904480 455.133667,278.371796 
	C462.877441,253.442215 490.205994,243.247299 511.359070,257.473358 
	C520.328491,263.505524 524.869324,272.451477 527.708496,282.728271 
	C541.488953,332.608459 555.515259,382.420746 569.463501,432.254578 
	C582.972717,480.519928 596.434082,528.798767 610.028381,577.040161 
	C619.401062,610.300537 629.026123,643.489746 638.425476,676.742676 
	C648.316711,711.735413 658.040649,746.775391 667.912720,781.773560 
	C670.277832,790.158264 672.940918,798.458984 675.466919,806.798279 
	C675.909241,806.830078 676.351624,806.861816 676.793945,806.893616 
	C678.200500,801.980652 679.602783,797.066467 681.014343,792.154907 
	C696.097900,739.669556 710.766907,687.060303 726.401855,634.739746 
	C738.476013,594.334839 765.496033,569.861755 807.627441,563.054504 
	C811.531433,562.423828 815.515686,562.008545 819.465271,561.987854 
	C840.630371,561.876587 861.802734,562.240417 882.960083,561.817322 
	C901.286255,561.450867 915.253357,576.248840 915.361633,594.092407 
	C915.444153,607.686096 903.172791,625.067383 882.895691,624.940979 
	C862.897339,624.816284 842.897705,624.860535 822.898743,624.887451 
	C804.833069,624.911804 790.776184,634.910950 785.740295,652.154114 
	C773.406311,694.386597 761.383057,736.709778 749.262329,779.004395 
	C737.091125,821.475281 725.130432,864.007568 712.708313,906.404846 
	C708.128052,922.037659 697.944397,932.697327 681.325562,935.431824 
	C665.968262,937.958679 653.042969,932.407593 644.634644,919.677734 
	C639.942444,912.573914 637.653442,903.677185 635.235901,895.312561 
	C625.499756,861.626343 616.138611,827.831848 606.633423,794.078918 
	C591.840332,741.548950 577.027405,689.024475 562.251587,636.489624 
	C549.757874,592.068787 537.345886,547.624939 524.821533,503.212769 
	C514.005310,464.857605 503.083771,426.532135 492.196838,388.196960 
	C491.844513,386.956390 491.359680,385.753418 490.457062,383.149506 
	C487.444916,393.376068 484.767090,402.276062 482.201965,411.208435 
	C468.735107,458.102570 455.102295,504.950256 441.909607,551.921509 
	C431.216217,589.994263 399.022125,618.929871 359.850006,623.658081 
	C346.548370,625.263672 332.967712,624.654968 319.511536,624.854004 
	C307.848114,625.026550 296.180206,624.955872 284.514618,624.910461 
	C270.410187,624.855591 257.905304,615.880615 254.238586,603.283508 
	C250.004166,588.735962 255.072845,573.903687 267.923737,566.638794 
	C272.873322,563.840576 279.140564,562.285278 284.859772,562.133423 
	C304.844666,561.602905 324.857697,562.187073 344.848083,561.772461 
	C350.487885,561.655457 356.086823,559.570129 362.046570,558.215088 
z"/>
</svg>